<?xml version="1.0" encoding="UTF-8" standalone="no"?><!DOCTYPE svg PUBLIC "-//W3C//DTD SVG 1.1//EN" "http://www.w3.org/Graphics/SVG/1.1/DTD/svg11.dtd"><svg width="100%" height="100%" viewBox="0 0 343 122" version="1.1" xmlns="http://www.w3.org/2000/svg" xmlns:xlink="http://www.w3.org/1999/xlink" xml:space="preserve" xmlns:serif="http://www.serif.com/" style="fill-rule:evenodd;clip-rule:evenodd;stroke-linecap:round;stroke-linejoin:round;stroke-miterlimit:1.5;"><path d="M1.199,11.423l158.481,-10.224l-7.668,74.128l-140.589,15.337l-10.224,-79.241Z" style="fill:#444;stroke:#000;stroke-width:2.4px;"/><path d="M3.537,28.551l153.002,4.105l3.141,-31.457l-158.481,11.502l2.338,15.85Z" style="fill:#6b231f;stroke:#000;stroke-width:2.4px;"/><path d="M133.122,10.461l15.144,1.742l-2.814,12.866l-21.979,-1.876l9.649,-12.732Z" style="fill:#410000;stroke:#ca0625;stroke-width:2.4px;"/><path d="M234.943,53.389l-0,66.419l102.209,-7.852l4.127,-41.226l-106.336,-17.341Z" style="fill:#464444;stroke:#000;stroke-width:2.4px;"/><path d="M234.943,53.389l-0,25.848l105.071,4.049l1.265,-13.21l-106.336,-16.687Z" style="fill:#0083b2;stroke:#000;stroke-width:2.4px;"/><path d="M243.055,75.27c7.364,-1.473 0.853,-15.648 9.177,-13.895" style="fill:none;stroke:#7df5fb;stroke-width:2.4px;"/><path d="M243.913,66.006c3.303,-0.275 3.26,-0.083 6.604,0" style="fill:none;stroke:#7df5fb;stroke-width:2.4px;"/><path d="M144.64,45.296c16.966,0.679 32.342,-0.846 47.534,11.308c18.09,14.471 21.8,33.972 50.675,30.362" style="fill:none;stroke:#000;stroke-width:2.4px;"/><path d="M144.64,49.376c16.966,0.679 32.342,-0.846 47.534,11.308c18.09,14.471 21.8,33.972 50.675,30.362" style="fill:none;stroke:#000;stroke-width:2.4px;"/><path d="M135.147,42.802c1.354,0.542 1.368,2.279 10.68,4.607c0.318,0.079 -6.906,2.791 -7.957,3.141c-5.452,1.817 -2.856,-2.133 -2.723,-7.748Z" style="fill:#fff;"/><path d="M135.147,42.802c-0.133,5.615 -2.729,9.565 2.723,7.748c1.051,-0.35 8.275,-3.062 7.957,-3.141c-9.312,-2.328 -9.326,-4.065 -10.68,-4.607Z" style="fill:none;stroke:#fff;stroke-width:2.4px;"/><path d="M241.501,86.31c4.624,1.541 4.947,1.141 9.423,2.931c0.854,0.342 -0.692,-0.117 -8.586,4.817c-1.462,0.914 -1.446,-0.443 -0.837,-7.748Z" style="fill:#fff;"/><path d="M241.501,86.31c-0.609,7.305 -0.625,8.662 0.837,7.748c7.894,-4.934 9.44,-4.475 8.586,-4.817c-4.476,-1.79 -4.799,-1.39 -9.423,-2.931Z" style="fill:none;stroke:#fff;stroke-width:2.4px;"/><path d="M144.64,47.456c16.966,0.679 32.342,-0.846 47.534,11.308c18.09,14.471 21.8,33.972 50.675,30.362" style="fill:none;stroke:#fff;stroke-width:2.4px;"/></svg>