<?xml version="1.0" encoding="UTF-8" standalone="no"?><!DOCTYPE svg PUBLIC "-//W3C//DTD SVG 1.1//EN" "http://www.w3.org/Graphics/SVG/1.1/DTD/svg11.dtd"><svg width="100%" height="100%" viewBox="0 0 183 267" version="1.1" xmlns="http://www.w3.org/2000/svg" xmlns:xlink="http://www.w3.org/1999/xlink" xml:space="preserve" xmlns:serif="http://www.serif.com/" style="fill-rule:evenodd;clip-rule:evenodd;stroke-linecap:round;stroke-linejoin:round;stroke-miterlimit:1.5;"><path d="M153.011,168.946l-7.669,-107.358l-60.069,4.473l31.952,-31.952l-32.911,-32.91l51.443,-0l14.538,14.538l21.887,21.088l9.586,153.21l-64.543,64.543l-21.408,-21.408l23.644,-23.645l33.55,-40.579Z" style="fill:#ffda09;stroke:#231f20;stroke-width:2.4px;"/><path d="M36.985,62.547l-17.094,129.724l98.891,7.669l-31.952,31.952l32.91,32.91l-51.442,0l-14.538,-14.538l-52.561,-24.283l12.142,-196.664l73.489,-17.894l21.408,21.408l-23.645,23.645l-47.608,6.071Z" style="fill:#0955ff;stroke:#231f20;stroke-width:2.4px;"/><path d="M126.754,11.423l7.013,11.247l-14.027,0l7.014,-11.247Z"/><path d="M82.874,247.034l7.014,11.247l-14.027,0l7.013,-11.247Z" style="fill:#fff;"/></svg>