<?xml version="1.0" encoding="UTF-8" standalone="no"?><!DOCTYPE svg PUBLIC "-//W3C//DTD SVG 1.1//EN" "http://www.w3.org/Graphics/SVG/1.1/DTD/svg11.dtd"><svg width="100%" height="100%" viewBox="0 0 385 167" version="1.1" xmlns="http://www.w3.org/2000/svg" xmlns:xlink="http://www.w3.org/1999/xlink" xml:space="preserve" xmlns:serif="http://www.serif.com/" style="fill-rule:evenodd;clip-rule:evenodd;stroke-linecap:round;stroke-linejoin:round;stroke-miterlimit:1.5;"><g transform="matrix(0.24,0,0,0.24,-366.592,-566.008)"><g transform="matrix(75,0,0,75,1523.04,2410.87)"><path d="M0.315,0.014c-0.046,0 -0.088,-0.01 -0.127,-0.029c-0.039,-0.02 -0.07,-0.049 -0.094,-0.087c-0.023,-0.038 -0.035,-0.084 -0.035,-0.138l0,-0.012c0,-0.053 0.012,-0.099 0.036,-0.138c0.023,-0.039 0.054,-0.068 0.093,-0.089c0.039,-0.021 0.081,-0.031 0.127,-0.031c0.042,0 0.08,0.008 0.112,0.025c0.033,0.016 0.061,0.038 0.082,0.067c0.021,0.029 0.034,0.061 0.04,0.098l-0.078,0.018c-0.003,-0.023 -0.01,-0.045 -0.023,-0.066c-0.013,-0.02 -0.03,-0.036 -0.052,-0.049c-0.023,-0.013 -0.05,-0.019 -0.083,-0.019c-0.032,-0 -0.061,0.008 -0.087,0.023c-0.027,0.016 -0.048,0.038 -0.063,0.065c-0.016,0.028 -0.024,0.06 -0.024,0.096l0,0.012c0,0.037 0.008,0.069 0.024,0.096c0.015,0.027 0.036,0.048 0.063,0.062c0.027,0.015 0.056,0.022 0.089,0.022c0.033,-0 0.06,-0.007 0.083,-0.02c0.022,-0.013 0.039,-0.029 0.052,-0.05c0.012,-0.02 0.02,-0.041 0.023,-0.064l0.078,0.018c-0.007,0.037 -0.02,0.069 -0.041,0.098c-0.021,0.029 -0.047,0.051 -0.08,0.067c-0.033,0.017 -0.072,0.025 -0.115,0.025Z" style="fill:#51ff9a;fill-rule:nonzero;"/></g><g transform="matrix(75,0,0,75,1568.94,2410.87)"><path d="M0.047,-0l0,-0.072l0.114,0l0,-0.352l-0.102,0l0,-0.072l0.18,0l0,0.066l0.012,0c0.013,-0.027 0.031,-0.048 0.054,-0.061c0.024,-0.012 0.051,-0.019 0.08,-0.019c0.049,0 0.09,0.016 0.121,0.049c0.031,0.033 0.047,0.08 0.049,0.143l-0.082,0.012c0,-0.046 -0.011,-0.079 -0.033,-0.1c-0.022,-0.02 -0.049,-0.03 -0.081,-0.03c-0.041,0 -0.071,0.015 -0.091,0.045c-0.019,0.029 -0.029,0.066 -0.029,0.109l0,0.21l0.126,0l0,0.072l-0.318,0Z" style="fill:#51ff9a;fill-rule:nonzero;"/></g><g transform="matrix(75,0,0,75,1614.84,2410.87)"><path d="M0.308,0.014c-0.047,0 -0.089,-0.011 -0.126,-0.033c-0.036,-0.021 -0.064,-0.051 -0.085,-0.09c-0.021,-0.038 -0.031,-0.082 -0.031,-0.133l0,-0.024c0,-0.047 0.011,-0.088 0.032,-0.125c0.021,-0.037 0.051,-0.066 0.088,-0.087c0.037,-0.021 0.078,-0.032 0.124,-0.032c0.041,0 0.076,0.007 0.106,0.022c0.029,0.015 0.054,0.033 0.073,0.056c0.018,0.023 0.032,0.047 0.041,0.073c0.009,0.025 0.014,0.049 0.014,0.071l0,0.064l-0.4,-0c0.002,0.049 0.017,0.088 0.046,0.118c0.03,0.031 0.069,0.046 0.12,0.046c0.047,-0 0.083,-0.01 0.106,-0.03c0.023,-0.02 0.039,-0.044 0.048,-0.072l0.074,0.02c-0.014,0.046 -0.04,0.083 -0.077,0.112c-0.038,0.029 -0.089,0.044 -0.153,0.044Zm-0.162,-0.31l0.32,0c-0.001,-0.029 -0.01,-0.053 -0.024,-0.075c-0.015,-0.021 -0.035,-0.037 -0.058,-0.048c-0.023,-0.011 -0.048,-0.017 -0.074,-0.017c-0.044,0 -0.081,0.013 -0.111,0.04c-0.03,0.027 -0.048,0.06 -0.053,0.1Z" style="fill:#51ff9a;fill-rule:nonzero;"/></g><g transform="matrix(75,0,0,75,1660.74,2410.87)"><path d="M0.279,0.014c-0.043,0 -0.083,-0.01 -0.118,-0.029c-0.035,-0.02 -0.062,-0.049 -0.083,-0.087c-0.021,-0.037 -0.031,-0.083 -0.031,-0.138l-0,-0.016c-0,-0.054 0.01,-0.1 0.031,-0.138c0.021,-0.038 0.048,-0.067 0.083,-0.086c0.035,-0.02 0.074,-0.03 0.116,-0.03c0.034,0 0.065,0.007 0.092,0.023c0.028,0.015 0.05,0.038 0.066,0.069l0.012,0l0,-0.078l0.078,0l0,0.394c0,0.02 0.009,0.03 0.027,0.03l0.025,-0l-0,0.072l-0.053,-0c-0.021,-0 -0.039,-0.007 -0.054,-0.02c-0.015,-0.013 -0.023,-0.035 -0.023,-0.064l-0.012,-0c-0.016,0.033 -0.038,0.057 -0.067,0.073c-0.028,0.017 -0.058,0.025 -0.089,0.025Zm0.008,-0.074c0.047,-0 0.085,-0.017 0.115,-0.05c0.03,-0.033 0.045,-0.077 0.045,-0.132l0,-0.012c0,-0.035 -0.007,-0.067 -0.021,-0.094c-0.014,-0.027 -0.033,-0.049 -0.057,-0.065c-0.024,-0.015 -0.051,-0.023 -0.082,-0.023c-0.031,0 -0.058,0.007 -0.082,0.022c-0.024,0.015 -0.043,0.036 -0.057,0.063c-0.014,0.027 -0.021,0.059 -0.021,0.095l0,0.016c0,0.056 0.015,0.1 0.045,0.132c0.03,0.032 0.068,0.048 0.115,0.048Z" style="fill:#51ff9a;fill-rule:nonzero;"/></g><g transform="matrix(75,0,0,75,1706.64,2410.87)"><path d="M0.303,-0c-0.023,-0 -0.041,-0.007 -0.055,-0.022c-0.015,-0.015 -0.022,-0.033 -0.022,-0.056l0,-0.346l-0.156,0l0,-0.072l0.156,0l0,-0.204l0.078,0l0,0.204l0.192,0l0,0.072l-0.192,0l0,0.322c0,0.02 0.009,0.03 0.027,0.03l0.141,0l0,0.072l-0.169,0Z" style="fill:#51ff9a;fill-rule:nonzero;"/></g><g transform="matrix(75,0,0,75,1752.54,2410.87)"><path d="M0.308,0.014c-0.047,0 -0.089,-0.011 -0.126,-0.033c-0.036,-0.021 -0.064,-0.051 -0.085,-0.09c-0.021,-0.038 -0.031,-0.082 -0.031,-0.133l0,-0.024c0,-0.047 0.011,-0.088 0.032,-0.125c0.021,-0.037 0.051,-0.066 0.088,-0.087c0.037,-0.021 0.078,-0.032 0.124,-0.032c0.041,0 0.076,0.007 0.106,0.022c0.029,0.015 0.054,0.033 0.073,0.056c0.018,0.023 0.032,0.047 0.041,0.073c0.009,0.025 0.014,0.049 0.014,0.071l0,0.064l-0.4,-0c0.002,0.049 0.017,0.088 0.046,0.118c0.03,0.031 0.069,0.046 0.12,0.046c0.047,-0 0.083,-0.01 0.106,-0.03c0.023,-0.02 0.039,-0.044 0.048,-0.072l0.074,0.02c-0.014,0.046 -0.04,0.083 -0.077,0.112c-0.038,0.029 -0.089,0.044 -0.153,0.044Zm-0.162,-0.31l0.32,0c-0.001,-0.029 -0.01,-0.053 -0.024,-0.075c-0.015,-0.021 -0.035,-0.037 -0.058,-0.048c-0.023,-0.011 -0.048,-0.017 -0.074,-0.017c-0.044,0 -0.081,0.013 -0.111,0.04c-0.03,0.027 -0.048,0.06 -0.053,0.1Z" style="fill:#51ff9a;fill-rule:nonzero;"/></g><g transform="matrix(75,0,0,75,1798.44,2410.87)"><rect x="0.073" y="0.048" width="0.466" height="0.072" style="fill:#51ff9a;fill-rule:nonzero;"/></g><g transform="matrix(75,0,0,75,1844.34,2410.87)"><path d="M0.314,0.014c-0.051,0 -0.093,-0.009 -0.126,-0.027c-0.033,-0.017 -0.057,-0.04 -0.073,-0.068c-0.016,-0.027 -0.025,-0.056 -0.027,-0.085l0.074,-0.018c0.003,0.038 0.018,0.068 0.045,0.092c0.026,0.022 0.06,0.034 0.103,0.034c0.037,-0 0.066,-0.007 0.088,-0.022c0.023,-0.014 0.034,-0.034 0.034,-0.06c-0,-0.028 -0.011,-0.048 -0.033,-0.06c-0.022,-0.012 -0.058,-0.02 -0.107,-0.023c-0.057,-0.004 -0.101,-0.018 -0.132,-0.041c-0.031,-0.023 -0.046,-0.055 -0.046,-0.098l-0,-0.006c-0,-0.031 0.009,-0.057 0.026,-0.079c0.017,-0.021 0.04,-0.036 0.067,-0.047c0.027,-0.011 0.056,-0.016 0.087,-0.016c0.044,0 0.08,0.007 0.109,0.023c0.03,0.015 0.052,0.034 0.067,0.057c0.015,0.024 0.025,0.049 0.028,0.074l-0.074,0.018c-0.003,-0.032 -0.015,-0.057 -0.038,-0.075c-0.023,-0.018 -0.052,-0.027 -0.088,-0.027c-0.028,0 -0.053,0.006 -0.075,0.018c-0.022,0.012 -0.033,0.03 -0.033,0.054c0,0.024 0.01,0.042 0.03,0.055c0.021,0.013 0.058,0.021 0.112,0.025c0.057,0.005 0.101,0.018 0.132,0.041c0.031,0.023 0.046,0.057 0.046,0.101l0,0.006c0,0.048 -0.018,0.086 -0.054,0.113c-0.037,0.027 -0.084,0.041 -0.142,0.041Z" style="fill:#51ff9a;fill-rule:nonzero;"/></g><g transform="matrix(75,0,0,75,1890.24,2410.87)"><path d="M0.303,-0c-0.023,-0 -0.041,-0.007 -0.055,-0.022c-0.015,-0.015 -0.022,-0.033 -0.022,-0.056l0,-0.346l-0.156,0l0,-0.072l0.156,0l0,-0.204l0.078,0l0,0.204l0.192,0l0,0.072l-0.192,0l0,0.322c0,0.02 0.009,0.03 0.027,0.03l0.141,0l0,0.072l-0.169,0Z" style="fill:#51ff9a;fill-rule:nonzero;"/></g><g transform="matrix(75,0,0,75,1936.14,2410.87)"><path d="M0.306,0.014c-0.044,0 -0.085,-0.01 -0.123,-0.03c-0.037,-0.02 -0.068,-0.049 -0.091,-0.087c-0.023,-0.038 -0.035,-0.084 -0.035,-0.139l0,-0.012c0,-0.054 0.012,-0.1 0.035,-0.139c0.023,-0.038 0.054,-0.067 0.092,-0.087c0.037,-0.02 0.078,-0.03 0.122,-0.03c0.044,0 0.085,0.01 0.123,0.03c0.037,0.02 0.068,0.049 0.091,0.087c0.023,0.039 0.035,0.085 0.035,0.139l0,0.012c0,0.055 -0.012,0.101 -0.035,0.139c-0.023,0.038 -0.054,0.067 -0.092,0.087c-0.037,0.02 -0.078,0.03 -0.122,0.03Zm-0,-0.074c0.032,-0 0.061,-0.007 0.086,-0.022c0.025,-0.015 0.045,-0.036 0.06,-0.063c0.015,-0.027 0.023,-0.06 0.023,-0.097l-0,-0.012c-0,-0.036 -0.008,-0.068 -0.023,-0.095c-0.015,-0.027 -0.035,-0.049 -0.061,-0.064c-0.025,-0.015 -0.054,-0.023 -0.085,-0.023c-0.031,-0 -0.06,0.008 -0.086,0.023c-0.025,0.015 -0.046,0.037 -0.061,0.064c-0.015,0.027 -0.022,0.059 -0.022,0.095l-0,0.012c-0,0.037 0.007,0.07 0.022,0.097c0.015,0.027 0.036,0.048 0.061,0.063c0.026,0.015 0.055,0.022 0.086,0.022Z" style="fill:#51ff9a;fill-rule:nonzero;"/></g><g transform="matrix(75,0,0,75,1982.04,2410.87)"><path d="M0.047,-0l0,-0.072l0.114,0l0,-0.352l-0.102,0l0,-0.072l0.18,0l0,0.066l0.012,0c0.013,-0.027 0.031,-0.048 0.054,-0.061c0.024,-0.012 0.051,-0.019 0.08,-0.019c0.049,0 0.09,0.016 0.121,0.049c0.031,0.033 0.047,0.08 0.049,0.143l-0.082,0.012c0,-0.046 -0.011,-0.079 -0.033,-0.1c-0.022,-0.02 -0.049,-0.03 -0.081,-0.03c-0.041,0 -0.071,0.015 -0.091,0.045c-0.019,0.029 -0.029,0.066 -0.029,0.109l0,0.21l0.126,0l0,0.072l-0.318,0Z" style="fill:#51ff9a;fill-rule:nonzero;"/></g><g transform="matrix(75,0,0,75,2027.94,2410.87)"><path d="M0.165,0.2l0,-0.072l0.255,0c0.018,0 0.027,-0.01 0.027,-0.03l-0,-0.188l-0.012,0c-0.016,0.032 -0.037,0.057 -0.063,0.076c-0.026,0.019 -0.059,0.028 -0.099,0.028c-0.055,-0 -0.099,-0.018 -0.134,-0.054c-0.035,-0.036 -0.052,-0.089 -0.052,-0.16l0,-0.296l0.078,0l0,0.286c0,0.052 0.011,0.09 0.032,0.114c0.021,0.024 0.054,0.036 0.098,0.036c0.047,-0 0.084,-0.016 0.111,-0.049c0.027,-0.032 0.041,-0.075 0.041,-0.129l0,-0.258l0.078,0l0,0.618c0,0.023 -0.007,0.041 -0.021,0.056c-0.015,0.015 -0.033,0.022 -0.056,0.022l-0.283,0Z" style="fill:#51ff9a;fill-rule:nonzero;"/></g><g transform="matrix(75,0,0,75,2119.74,2410.87)"><path d="M0.297,0.014c-0.044,0 -0.084,-0.01 -0.12,-0.029c-0.036,-0.02 -0.065,-0.049 -0.086,-0.087c-0.021,-0.038 -0.032,-0.084 -0.032,-0.138l0,-0.016c0,-0.054 0.011,-0.1 0.033,-0.138c0.021,-0.037 0.05,-0.066 0.086,-0.086c0.035,-0.02 0.074,-0.03 0.117,-0.03c0.034,0 0.066,0.007 0.096,0.023c0.029,0.015 0.052,0.038 0.068,0.069l0.012,0l0,-0.282l0.078,-0l0,0.7l-0.078,-0l0,-0.076l-0.012,-0c-0.016,0.031 -0.04,0.053 -0.071,0.068c-0.031,0.015 -0.061,0.022 -0.091,0.022Zm0.008,-0.074c0.031,-0 0.059,-0.008 0.084,-0.023c0.025,-0.015 0.045,-0.036 0.06,-0.063c0.015,-0.027 0.022,-0.059 0.022,-0.096l-0,-0.012c-0,-0.035 -0.008,-0.067 -0.023,-0.094c-0.015,-0.027 -0.035,-0.049 -0.06,-0.065c-0.025,-0.015 -0.052,-0.023 -0.083,-0.023c-0.031,-0 -0.06,0.007 -0.085,0.022c-0.025,0.015 -0.044,0.036 -0.059,0.063c-0.015,0.027 -0.022,0.059 -0.022,0.095l-0,0.016c-0,0.037 0.007,0.068 0.021,0.095c0.015,0.027 0.035,0.048 0.06,0.063c0.025,0.015 0.054,0.022 0.085,0.022Z" style="fill:#29d7ff;fill-rule:nonzero;"/></g><g transform="matrix(75,0,0,75,2165.64,2410.87)"><path d="M0.306,0.014c-0.044,0 -0.085,-0.01 -0.123,-0.03c-0.037,-0.02 -0.068,-0.049 -0.091,-0.087c-0.023,-0.038 -0.035,-0.084 -0.035,-0.139l0,-0.012c0,-0.054 0.012,-0.1 0.035,-0.139c0.023,-0.038 0.054,-0.067 0.092,-0.087c0.037,-0.02 0.078,-0.03 0.122,-0.03c0.044,0 0.085,0.01 0.123,0.03c0.037,0.02 0.068,0.049 0.091,0.087c0.023,0.039 0.035,0.085 0.035,0.139l0,0.012c0,0.055 -0.012,0.101 -0.035,0.139c-0.023,0.038 -0.054,0.067 -0.092,0.087c-0.037,0.02 -0.078,0.03 -0.122,0.03Zm-0,-0.074c0.032,-0 0.061,-0.007 0.086,-0.022c0.025,-0.015 0.045,-0.036 0.06,-0.063c0.015,-0.027 0.023,-0.06 0.023,-0.097l-0,-0.012c-0,-0.036 -0.008,-0.068 -0.023,-0.095c-0.015,-0.027 -0.035,-0.049 -0.061,-0.064c-0.025,-0.015 -0.054,-0.023 -0.085,-0.023c-0.031,-0 -0.06,0.008 -0.086,0.023c-0.025,0.015 -0.046,0.037 -0.061,0.064c-0.015,0.027 -0.022,0.059 -0.022,0.095l-0,0.012c-0,0.037 0.007,0.07 0.022,0.097c0.015,0.027 0.036,0.048 0.061,0.063c0.026,0.015 0.055,0.022 0.086,0.022Z" style="fill:#29d7ff;fill-rule:nonzero;"/></g><g transform="matrix(75,0,0,75,1673.04,2502.53)"><path d="M0.315,0.014c-0.046,0 -0.088,-0.01 -0.127,-0.029c-0.039,-0.02 -0.07,-0.049 -0.094,-0.087c-0.023,-0.038 -0.035,-0.084 -0.035,-0.138l0,-0.012c0,-0.053 0.012,-0.099 0.036,-0.138c0.023,-0.039 0.054,-0.068 0.093,-0.089c0.039,-0.021 0.081,-0.031 0.127,-0.031c0.042,0 0.08,0.008 0.112,0.025c0.033,0.016 0.061,0.038 0.082,0.067c0.021,0.029 0.034,0.061 0.04,0.098l-0.078,0.018c-0.003,-0.023 -0.01,-0.045 -0.023,-0.066c-0.013,-0.02 -0.03,-0.036 -0.052,-0.049c-0.023,-0.013 -0.05,-0.019 -0.083,-0.019c-0.032,-0 -0.061,0.008 -0.087,0.023c-0.027,0.016 -0.048,0.038 -0.063,0.065c-0.016,0.028 -0.024,0.06 -0.024,0.096l0,0.012c0,0.037 0.008,0.069 0.024,0.096c0.015,0.027 0.036,0.048 0.063,0.062c0.027,0.015 0.056,0.022 0.089,0.022c0.033,-0 0.06,-0.007 0.083,-0.02c0.022,-0.013 0.039,-0.029 0.052,-0.05c0.012,-0.02 0.02,-0.041 0.023,-0.064l0.078,0.018c-0.007,0.037 -0.02,0.069 -0.041,0.098c-0.021,0.029 -0.047,0.051 -0.08,0.067c-0.033,0.017 -0.072,0.025 -0.115,0.025Z" style="fill:#fff;fill-rule:nonzero;"/></g><g transform="matrix(75,0,0,75,1718.94,2502.53)"><path d="M0.306,0.014c-0.044,0 -0.085,-0.01 -0.123,-0.03c-0.037,-0.02 -0.068,-0.049 -0.091,-0.087c-0.023,-0.038 -0.035,-0.084 -0.035,-0.139l0,-0.012c0,-0.054 0.012,-0.1 0.035,-0.139c0.023,-0.038 0.054,-0.067 0.092,-0.087c0.037,-0.02 0.078,-0.03 0.122,-0.03c0.044,0 0.085,0.01 0.123,0.03c0.037,0.02 0.068,0.049 0.091,0.087c0.023,0.039 0.035,0.085 0.035,0.139l0,0.012c0,0.055 -0.012,0.101 -0.035,0.139c-0.023,0.038 -0.054,0.067 -0.092,0.087c-0.037,0.02 -0.078,0.03 -0.122,0.03Zm-0,-0.074c0.032,-0 0.061,-0.007 0.086,-0.022c0.025,-0.015 0.045,-0.036 0.06,-0.063c0.015,-0.027 0.023,-0.06 0.023,-0.097l-0,-0.012c-0,-0.036 -0.008,-0.068 -0.023,-0.095c-0.015,-0.027 -0.035,-0.049 -0.061,-0.064c-0.025,-0.015 -0.054,-0.023 -0.085,-0.023c-0.031,-0 -0.06,0.008 -0.086,0.023c-0.025,0.015 -0.046,0.037 -0.061,0.064c-0.015,0.027 -0.022,0.059 -0.022,0.095l-0,0.012c-0,0.037 0.007,0.07 0.022,0.097c0.015,0.027 0.036,0.048 0.061,0.063c0.026,0.015 0.055,0.022 0.086,0.022Z" style="fill:#fff;fill-rule:nonzero;"/></g><g transform="matrix(75,0,0,75,1764.84,2502.53)"><path d="M0.297,0.014c-0.044,0 -0.084,-0.01 -0.12,-0.029c-0.036,-0.02 -0.065,-0.049 -0.086,-0.087c-0.021,-0.038 -0.032,-0.084 -0.032,-0.138l0,-0.016c0,-0.054 0.011,-0.1 0.033,-0.138c0.021,-0.037 0.05,-0.066 0.086,-0.086c0.035,-0.02 0.074,-0.03 0.117,-0.03c0.034,0 0.066,0.007 0.096,0.023c0.029,0.015 0.052,0.038 0.068,0.069l0.012,0l0,-0.282l0.078,-0l0,0.7l-0.078,-0l0,-0.076l-0.012,-0c-0.016,0.031 -0.04,0.053 -0.071,0.068c-0.031,0.015 -0.061,0.022 -0.091,0.022Zm0.008,-0.074c0.031,-0 0.059,-0.008 0.084,-0.023c0.025,-0.015 0.045,-0.036 0.06,-0.063c0.015,-0.027 0.022,-0.059 0.022,-0.096l-0,-0.012c-0,-0.035 -0.008,-0.067 -0.023,-0.094c-0.015,-0.027 -0.035,-0.049 -0.06,-0.065c-0.025,-0.015 -0.052,-0.023 -0.083,-0.023c-0.031,-0 -0.06,0.007 -0.085,0.022c-0.025,0.015 -0.044,0.036 -0.059,0.063c-0.015,0.027 -0.022,0.059 -0.022,0.095l-0,0.016c-0,0.037 0.007,0.068 0.021,0.095c0.015,0.027 0.035,0.048 0.06,0.063c0.025,0.015 0.054,0.022 0.085,0.022Z" style="fill:#fff;fill-rule:nonzero;"/></g><g transform="matrix(75,0,0,75,1810.74,2502.53)"><path d="M0.308,0.014c-0.047,0 -0.089,-0.011 -0.126,-0.033c-0.036,-0.021 -0.064,-0.051 -0.085,-0.09c-0.021,-0.038 -0.031,-0.082 -0.031,-0.133l0,-0.024c0,-0.047 0.011,-0.088 0.032,-0.125c0.021,-0.037 0.051,-0.066 0.088,-0.087c0.037,-0.021 0.078,-0.032 0.124,-0.032c0.041,0 0.076,0.007 0.106,0.022c0.029,0.015 0.054,0.033 0.073,0.056c0.018,0.023 0.032,0.047 0.041,0.073c0.009,0.025 0.014,0.049 0.014,0.071l0,0.064l-0.4,-0c0.002,0.049 0.017,0.088 0.046,0.118c0.03,0.031 0.069,0.046 0.12,0.046c0.047,-0 0.083,-0.01 0.106,-0.03c0.023,-0.02 0.039,-0.044 0.048,-0.072l0.074,0.02c-0.014,0.046 -0.04,0.083 -0.077,0.112c-0.038,0.029 -0.089,0.044 -0.153,0.044Zm-0.162,-0.31l0.32,0c-0.001,-0.029 -0.01,-0.053 -0.024,-0.075c-0.015,-0.021 -0.035,-0.037 -0.058,-0.048c-0.023,-0.011 -0.048,-0.017 -0.074,-0.017c-0.044,0 -0.081,0.013 -0.111,0.04c-0.03,0.027 -0.048,0.06 -0.053,0.1Z" style="fill:#fff;fill-rule:nonzero;"/></g><g transform="matrix(75,0,0,75,1673.04,2594.2)"><path d="M0.048,-0l0,-0.496l0.078,0l0,0.054l0.012,0c0.009,-0.023 0.021,-0.04 0.038,-0.051c0.017,-0.012 0.036,-0.017 0.059,-0.017c0.024,0 0.044,0.006 0.059,0.019c0.016,0.013 0.027,0.029 0.033,0.049l0.012,0c0.023,-0.045 0.059,-0.068 0.108,-0.068c0.037,0 0.066,0.012 0.086,0.035c0.021,0.024 0.031,0.055 0.031,0.093l0,0.382l-0.078,-0l-0,-0.356c-0,-0.023 -0.005,-0.043 -0.016,-0.058c-0.011,-0.015 -0.028,-0.022 -0.051,-0.022c-0.022,0 -0.04,0.008 -0.054,0.025c-0.013,0.017 -0.02,0.042 -0.02,0.075l0,0.336l-0.078,-0l0,-0.36c0,-0.022 -0.006,-0.04 -0.018,-0.055c-0.012,-0.014 -0.028,-0.021 -0.048,-0.021c-0.024,-0 -0.043,0.009 -0.056,0.026c-0.013,0.017 -0.019,0.04 -0.019,0.068l-0,0.342l-0.078,-0Z" style="fill:#fff;fill-rule:nonzero;"/></g><g transform="matrix(75,0,0,75,1718.94,2594.2)"><path d="M0.306,0.014c-0.044,0 -0.085,-0.01 -0.123,-0.03c-0.037,-0.02 -0.068,-0.049 -0.091,-0.087c-0.023,-0.038 -0.035,-0.084 -0.035,-0.139l0,-0.012c0,-0.054 0.012,-0.1 0.035,-0.139c0.023,-0.038 0.054,-0.067 0.092,-0.087c0.037,-0.02 0.078,-0.03 0.122,-0.03c0.044,0 0.085,0.01 0.123,0.03c0.037,0.02 0.068,0.049 0.091,0.087c0.023,0.039 0.035,0.085 0.035,0.139l0,0.012c0,0.055 -0.012,0.101 -0.035,0.139c-0.023,0.038 -0.054,0.067 -0.092,0.087c-0.037,0.02 -0.078,0.03 -0.122,0.03Zm-0,-0.074c0.032,-0 0.061,-0.007 0.086,-0.022c0.025,-0.015 0.045,-0.036 0.06,-0.063c0.015,-0.027 0.023,-0.06 0.023,-0.097l-0,-0.012c-0,-0.036 -0.008,-0.068 -0.023,-0.095c-0.015,-0.027 -0.035,-0.049 -0.061,-0.064c-0.025,-0.015 -0.054,-0.023 -0.085,-0.023c-0.031,-0 -0.06,0.008 -0.086,0.023c-0.025,0.015 -0.046,0.037 -0.061,0.064c-0.015,0.027 -0.022,0.059 -0.022,0.095l-0,0.012c-0,0.037 0.007,0.07 0.022,0.097c0.015,0.027 0.036,0.048 0.061,0.063c0.026,0.015 0.055,0.022 0.086,0.022Z" style="fill:#fff;fill-rule:nonzero;"/></g><g transform="matrix(75,0,0,75,1764.84,2594.2)"><path d="M0.047,-0l0,-0.072l0.114,0l0,-0.352l-0.102,0l0,-0.072l0.18,0l0,0.066l0.012,0c0.013,-0.027 0.031,-0.048 0.054,-0.061c0.024,-0.012 0.051,-0.019 0.08,-0.019c0.049,0 0.09,0.016 0.121,0.049c0.031,0.033 0.047,0.08 0.049,0.143l-0.082,0.012c0,-0.046 -0.011,-0.079 -0.033,-0.1c-0.022,-0.02 -0.049,-0.03 -0.081,-0.03c-0.041,0 -0.071,0.015 -0.091,0.045c-0.019,0.029 -0.029,0.066 -0.029,0.109l0,0.21l0.126,0l0,0.072l-0.318,0Z" style="fill:#fff;fill-rule:nonzero;"/></g><g transform="matrix(75,0,0,75,1810.74,2594.2)"><path d="M0.308,0.014c-0.047,0 -0.089,-0.011 -0.126,-0.033c-0.036,-0.021 -0.064,-0.051 -0.085,-0.09c-0.021,-0.038 -0.031,-0.082 -0.031,-0.133l0,-0.024c0,-0.047 0.011,-0.088 0.032,-0.125c0.021,-0.037 0.051,-0.066 0.088,-0.087c0.037,-0.021 0.078,-0.032 0.124,-0.032c0.041,0 0.076,0.007 0.106,0.022c0.029,0.015 0.054,0.033 0.073,0.056c0.018,0.023 0.032,0.047 0.041,0.073c0.009,0.025 0.014,0.049 0.014,0.071l0,0.064l-0.4,-0c0.002,0.049 0.017,0.088 0.046,0.118c0.03,0.031 0.069,0.046 0.12,0.046c0.047,-0 0.083,-0.01 0.106,-0.03c0.023,-0.02 0.039,-0.044 0.048,-0.072l0.074,0.02c-0.014,0.046 -0.04,0.083 -0.077,0.112c-0.038,0.029 -0.089,0.044 -0.153,0.044Zm-0.162,-0.31l0.32,0c-0.001,-0.029 -0.01,-0.053 -0.024,-0.075c-0.015,-0.021 -0.035,-0.037 -0.058,-0.048c-0.023,-0.011 -0.048,-0.017 -0.074,-0.017c-0.044,0 -0.081,0.013 -0.111,0.04c-0.03,0.027 -0.048,0.06 -0.053,0.1Z" style="fill:#fff;fill-rule:nonzero;"/></g><g transform="matrix(75,0,0,75,1856.64,2594.2)"><rect x="0.073" y="0.048" width="0.466" height="0.072" style="fill:#fff;fill-rule:nonzero;"/></g><g transform="matrix(75,0,0,75,1902.54,2594.2)"><path d="M0.315,0.014c-0.046,0 -0.088,-0.01 -0.127,-0.029c-0.039,-0.02 -0.07,-0.049 -0.094,-0.087c-0.023,-0.038 -0.035,-0.084 -0.035,-0.138l0,-0.012c0,-0.053 0.012,-0.099 0.036,-0.138c0.023,-0.039 0.054,-0.068 0.093,-0.089c0.039,-0.021 0.081,-0.031 0.127,-0.031c0.042,0 0.08,0.008 0.112,0.025c0.033,0.016 0.061,0.038 0.082,0.067c0.021,0.029 0.034,0.061 0.04,0.098l-0.078,0.018c-0.003,-0.023 -0.01,-0.045 -0.023,-0.066c-0.013,-0.02 -0.03,-0.036 -0.052,-0.049c-0.023,-0.013 -0.05,-0.019 -0.083,-0.019c-0.032,-0 -0.061,0.008 -0.087,0.023c-0.027,0.016 -0.048,0.038 -0.063,0.065c-0.016,0.028 -0.024,0.06 -0.024,0.096l0,0.012c0,0.037 0.008,0.069 0.024,0.096c0.015,0.027 0.036,0.048 0.063,0.062c0.027,0.015 0.056,0.022 0.089,0.022c0.033,-0 0.06,-0.007 0.083,-0.02c0.022,-0.013 0.039,-0.029 0.052,-0.05c0.012,-0.02 0.02,-0.041 0.023,-0.064l0.078,0.018c-0.007,0.037 -0.02,0.069 -0.041,0.098c-0.021,0.029 -0.047,0.051 -0.08,0.067c-0.033,0.017 -0.072,0.025 -0.115,0.025Z" style="fill:#fff;fill-rule:nonzero;"/></g><g transform="matrix(75,0,0,75,1948.44,2594.2)"><path d="M0.306,0.014c-0.044,0 -0.085,-0.01 -0.123,-0.03c-0.037,-0.02 -0.068,-0.049 -0.091,-0.087c-0.023,-0.038 -0.035,-0.084 -0.035,-0.139l0,-0.012c0,-0.054 0.012,-0.1 0.035,-0.139c0.023,-0.038 0.054,-0.067 0.092,-0.087c0.037,-0.02 0.078,-0.03 0.122,-0.03c0.044,0 0.085,0.01 0.123,0.03c0.037,0.02 0.068,0.049 0.091,0.087c0.023,0.039 0.035,0.085 0.035,0.139l0,0.012c0,0.055 -0.012,0.101 -0.035,0.139c-0.023,0.038 -0.054,0.067 -0.092,0.087c-0.037,0.02 -0.078,0.03 -0.122,0.03Zm-0,-0.074c0.032,-0 0.061,-0.007 0.086,-0.022c0.025,-0.015 0.045,-0.036 0.06,-0.063c0.015,-0.027 0.023,-0.06 0.023,-0.097l-0,-0.012c-0,-0.036 -0.008,-0.068 -0.023,-0.095c-0.015,-0.027 -0.035,-0.049 -0.061,-0.064c-0.025,-0.015 -0.054,-0.023 -0.085,-0.023c-0.031,-0 -0.06,0.008 -0.086,0.023c-0.025,0.015 -0.046,0.037 -0.061,0.064c-0.015,0.027 -0.022,0.059 -0.022,0.095l-0,0.012c-0,0.037 0.007,0.07 0.022,0.097c0.015,0.027 0.036,0.048 0.061,0.063c0.026,0.015 0.055,0.022 0.086,0.022Z" style="fill:#fff;fill-rule:nonzero;"/></g><g transform="matrix(75,0,0,75,1994.34,2594.2)"><path d="M0.297,0.014c-0.044,0 -0.084,-0.01 -0.12,-0.029c-0.036,-0.02 -0.065,-0.049 -0.086,-0.087c-0.021,-0.038 -0.032,-0.084 -0.032,-0.138l0,-0.016c0,-0.054 0.011,-0.1 0.033,-0.138c0.021,-0.037 0.05,-0.066 0.086,-0.086c0.035,-0.02 0.074,-0.03 0.117,-0.03c0.034,0 0.066,0.007 0.096,0.023c0.029,0.015 0.052,0.038 0.068,0.069l0.012,0l0,-0.282l0.078,-0l0,0.7l-0.078,-0l0,-0.076l-0.012,-0c-0.016,0.031 -0.04,0.053 -0.071,0.068c-0.031,0.015 -0.061,0.022 -0.091,0.022Zm0.008,-0.074c0.031,-0 0.059,-0.008 0.084,-0.023c0.025,-0.015 0.045,-0.036 0.06,-0.063c0.015,-0.027 0.022,-0.059 0.022,-0.096l-0,-0.012c-0,-0.035 -0.008,-0.067 -0.023,-0.094c-0.015,-0.027 -0.035,-0.049 -0.06,-0.065c-0.025,-0.015 -0.052,-0.023 -0.083,-0.023c-0.031,-0 -0.06,0.007 -0.085,0.022c-0.025,0.015 -0.044,0.036 -0.059,0.063c-0.015,0.027 -0.022,0.059 -0.022,0.095l-0,0.016c-0,0.037 0.007,0.068 0.021,0.095c0.015,0.027 0.035,0.048 0.06,0.063c0.025,0.015 0.054,0.022 0.085,0.022Z" style="fill:#fff;fill-rule:nonzero;"/></g><g transform="matrix(75,0,0,75,2040.24,2594.2)"><path d="M0.308,0.014c-0.047,0 -0.089,-0.011 -0.126,-0.033c-0.036,-0.021 -0.064,-0.051 -0.085,-0.09c-0.021,-0.038 -0.031,-0.082 -0.031,-0.133l0,-0.024c0,-0.047 0.011,-0.088 0.032,-0.125c0.021,-0.037 0.051,-0.066 0.088,-0.087c0.037,-0.021 0.078,-0.032 0.124,-0.032c0.041,0 0.076,0.007 0.106,0.022c0.029,0.015 0.054,0.033 0.073,0.056c0.018,0.023 0.032,0.047 0.041,0.073c0.009,0.025 0.014,0.049 0.014,0.071l0,0.064l-0.4,-0c0.002,0.049 0.017,0.088 0.046,0.118c0.03,0.031 0.069,0.046 0.12,0.046c0.047,-0 0.083,-0.01 0.106,-0.03c0.023,-0.02 0.039,-0.044 0.048,-0.072l0.074,0.02c-0.014,0.046 -0.04,0.083 -0.077,0.112c-0.038,0.029 -0.089,0.044 -0.153,0.044Zm-0.162,-0.31l0.32,0c-0.001,-0.029 -0.01,-0.053 -0.024,-0.075c-0.015,-0.021 -0.035,-0.037 -0.058,-0.048c-0.023,-0.011 -0.048,-0.017 -0.074,-0.017c-0.044,0 -0.081,0.013 -0.111,0.04c-0.03,0.027 -0.048,0.06 -0.053,0.1Z" style="fill:#fff;fill-rule:nonzero;"/></g><g transform="matrix(75,0,0,75,1523.04,2685.87)"><path d="M0.308,0.014c-0.047,0 -0.089,-0.011 -0.126,-0.033c-0.036,-0.021 -0.064,-0.051 -0.085,-0.09c-0.021,-0.038 -0.031,-0.082 -0.031,-0.133l0,-0.024c0,-0.047 0.011,-0.088 0.032,-0.125c0.021,-0.037 0.051,-0.066 0.088,-0.087c0.037,-0.021 0.078,-0.032 0.124,-0.032c0.041,0 0.076,0.007 0.106,0.022c0.029,0.015 0.054,0.033 0.073,0.056c0.018,0.023 0.032,0.047 0.041,0.073c0.009,0.025 0.014,0.049 0.014,0.071l0,0.064l-0.4,-0c0.002,0.049 0.017,0.088 0.046,0.118c0.03,0.031 0.069,0.046 0.12,0.046c0.047,-0 0.083,-0.01 0.106,-0.03c0.023,-0.02 0.039,-0.044 0.048,-0.072l0.074,0.02c-0.014,0.046 -0.04,0.083 -0.077,0.112c-0.038,0.029 -0.089,0.044 -0.153,0.044Zm-0.162,-0.31l0.32,0c-0.001,-0.029 -0.01,-0.053 -0.024,-0.075c-0.015,-0.021 -0.035,-0.037 -0.058,-0.048c-0.023,-0.011 -0.048,-0.017 -0.074,-0.017c-0.044,0 -0.081,0.013 -0.111,0.04c-0.03,0.027 -0.048,0.06 -0.053,0.1Z" style="fill:#55b6d6;fill-rule:nonzero;"/></g><g transform="matrix(75,0,0,75,1568.94,2685.87)"><path d="M0.087,-0l0,-0.496l0.078,0l0,0.084l0.012,-0c0.031,-0.065 0.084,-0.098 0.16,-0.098c0.057,0 0.103,0.018 0.137,0.053c0.034,0.036 0.051,0.09 0.051,0.161l0,0.296l-0.078,0l0,-0.28c0,-0.052 -0.012,-0.091 -0.035,-0.117c-0.023,-0.026 -0.055,-0.039 -0.095,-0.039c-0.047,0 -0.084,0.016 -0.111,0.049c-0.027,0.032 -0.041,0.075 -0.041,0.129l-0,0.258l-0.078,0Z" style="fill:#55b6d6;fill-rule:nonzero;"/></g><g transform="matrix(75,0,0,75,1614.84,2685.87)"><path d="M0.297,0.014c-0.044,0 -0.084,-0.01 -0.12,-0.029c-0.036,-0.02 -0.065,-0.049 -0.086,-0.087c-0.021,-0.038 -0.032,-0.084 -0.032,-0.138l0,-0.016c0,-0.054 0.011,-0.1 0.033,-0.138c0.021,-0.037 0.05,-0.066 0.086,-0.086c0.035,-0.02 0.074,-0.03 0.117,-0.03c0.034,0 0.066,0.007 0.096,0.023c0.029,0.015 0.052,0.038 0.068,0.069l0.012,0l0,-0.282l0.078,-0l0,0.7l-0.078,-0l0,-0.076l-0.012,-0c-0.016,0.031 -0.04,0.053 -0.071,0.068c-0.031,0.015 -0.061,0.022 -0.091,0.022Zm0.008,-0.074c0.031,-0 0.059,-0.008 0.084,-0.023c0.025,-0.015 0.045,-0.036 0.06,-0.063c0.015,-0.027 0.022,-0.059 0.022,-0.096l-0,-0.012c-0,-0.035 -0.008,-0.067 -0.023,-0.094c-0.015,-0.027 -0.035,-0.049 -0.06,-0.065c-0.025,-0.015 -0.052,-0.023 -0.083,-0.023c-0.031,-0 -0.06,0.007 -0.085,0.022c-0.025,0.015 -0.044,0.036 -0.059,0.063c-0.015,0.027 -0.022,0.059 -0.022,0.095l-0,0.016c-0,0.037 0.007,0.068 0.021,0.095c0.015,0.027 0.035,0.048 0.06,0.063c0.025,0.015 0.054,0.022 0.085,0.022Z" style="fill:#55b6d6;fill-rule:nonzero;"/></g></g><g transform="matrix(0.24,0,0,0.24,-242.398,-456.047)"><g transform="matrix(75,0,0,75,1523.04,2410.87)"><path d="M0.297,0.014c-0.044,0 -0.084,-0.01 -0.12,-0.029c-0.036,-0.02 -0.065,-0.049 -0.086,-0.087c-0.021,-0.038 -0.032,-0.084 -0.032,-0.138l0,-0.016c0,-0.054 0.011,-0.1 0.033,-0.138c0.021,-0.037 0.05,-0.066 0.086,-0.086c0.035,-0.02 0.074,-0.03 0.117,-0.03c0.034,0 0.066,0.007 0.096,0.023c0.029,0.015 0.052,0.038 0.068,0.069l0.012,0l0,-0.282l0.078,-0l0,0.7l-0.078,-0l0,-0.076l-0.012,-0c-0.016,0.031 -0.04,0.053 -0.071,0.068c-0.031,0.015 -0.061,0.022 -0.091,0.022Zm0.008,-0.074c0.031,-0 0.059,-0.008 0.084,-0.023c0.025,-0.015 0.045,-0.036 0.06,-0.063c0.015,-0.027 0.022,-0.059 0.022,-0.096l-0,-0.012c-0,-0.035 -0.008,-0.067 -0.023,-0.094c-0.015,-0.027 -0.035,-0.049 -0.06,-0.065c-0.025,-0.015 -0.052,-0.023 -0.083,-0.023c-0.031,-0 -0.06,0.007 -0.085,0.022c-0.025,0.015 -0.044,0.036 -0.059,0.063c-0.015,0.027 -0.022,0.059 -0.022,0.095l-0,0.016c-0,0.037 0.007,0.068 0.021,0.095c0.015,0.027 0.035,0.048 0.06,0.063c0.025,0.015 0.054,0.022 0.085,0.022Z" style="fill:#55b6d6;fill-rule:nonzero;"/></g><g transform="matrix(75,0,0,75,1568.94,2410.87)"><path d="M0.308,0.014c-0.047,0 -0.089,-0.011 -0.126,-0.033c-0.036,-0.021 -0.064,-0.051 -0.085,-0.09c-0.021,-0.038 -0.031,-0.082 -0.031,-0.133l0,-0.024c0,-0.047 0.011,-0.088 0.032,-0.125c0.021,-0.037 0.051,-0.066 0.088,-0.087c0.037,-0.021 0.078,-0.032 0.124,-0.032c0.041,0 0.076,0.007 0.106,0.022c0.029,0.015 0.054,0.033 0.073,0.056c0.018,0.023 0.032,0.047 0.041,0.073c0.009,0.025 0.014,0.049 0.014,0.071l0,0.064l-0.4,-0c0.002,0.049 0.017,0.088 0.046,0.118c0.03,0.031 0.069,0.046 0.12,0.046c0.047,-0 0.083,-0.01 0.106,-0.03c0.023,-0.02 0.039,-0.044 0.048,-0.072l0.074,0.02c-0.014,0.046 -0.04,0.083 -0.077,0.112c-0.038,0.029 -0.089,0.044 -0.153,0.044Zm-0.162,-0.31l0.32,0c-0.001,-0.029 -0.01,-0.053 -0.024,-0.075c-0.015,-0.021 -0.035,-0.037 -0.058,-0.048c-0.023,-0.011 -0.048,-0.017 -0.074,-0.017c-0.044,0 -0.081,0.013 -0.111,0.04c-0.03,0.027 -0.048,0.06 -0.053,0.1Z" style="fill:#55b6d6;fill-rule:nonzero;"/></g><g transform="matrix(75,0,0,75,1614.84,2410.87)"><path d="M0.235,-0l0,-0.424l-0.153,0l-0,-0.072l0.153,0l0,-0.126c0,-0.023 0.007,-0.041 0.021,-0.056c0.015,-0.015 0.033,-0.022 0.056,-0.022l0.196,0l0,0.072l-0.168,0c-0.018,0 -0.027,0.01 -0.027,0.03l0,0.102l0.207,0l0,0.072l-0.207,0l0,0.424l-0.078,0Z" style="fill:#55b6d6;fill-rule:nonzero;"/></g><g transform="matrix(75,0,0,75,1706.64,2410.87)"><path d="M0.315,0.014c-0.046,0 -0.088,-0.01 -0.127,-0.029c-0.039,-0.02 -0.07,-0.049 -0.094,-0.087c-0.023,-0.038 -0.035,-0.084 -0.035,-0.138l0,-0.012c0,-0.053 0.012,-0.099 0.036,-0.138c0.023,-0.039 0.054,-0.068 0.093,-0.089c0.039,-0.021 0.081,-0.031 0.127,-0.031c0.042,0 0.08,0.008 0.112,0.025c0.033,0.016 0.061,0.038 0.082,0.067c0.021,0.029 0.034,0.061 0.04,0.098l-0.078,0.018c-0.003,-0.023 -0.01,-0.045 -0.023,-0.066c-0.013,-0.02 -0.03,-0.036 -0.052,-0.049c-0.023,-0.013 -0.05,-0.019 -0.083,-0.019c-0.032,-0 -0.061,0.008 -0.087,0.023c-0.027,0.016 -0.048,0.038 -0.063,0.065c-0.016,0.028 -0.024,0.06 -0.024,0.096l0,0.012c0,0.037 0.008,0.069 0.024,0.096c0.015,0.027 0.036,0.048 0.063,0.062c0.027,0.015 0.056,0.022 0.089,0.022c0.033,-0 0.06,-0.007 0.083,-0.02c0.022,-0.013 0.039,-0.029 0.052,-0.05c0.012,-0.02 0.02,-0.041 0.023,-0.064l0.078,0.018c-0.007,0.037 -0.02,0.069 -0.041,0.098c-0.021,0.029 -0.047,0.051 -0.08,0.067c-0.033,0.017 -0.072,0.025 -0.115,0.025Z" style="fill:#51ff9a;fill-rule:nonzero;"/></g><g transform="matrix(75,0,0,75,1752.54,2410.87)"><path d="M0.047,-0l0,-0.072l0.114,0l0,-0.352l-0.102,0l0,-0.072l0.18,0l0,0.066l0.012,0c0.013,-0.027 0.031,-0.048 0.054,-0.061c0.024,-0.012 0.051,-0.019 0.08,-0.019c0.049,0 0.09,0.016 0.121,0.049c0.031,0.033 0.047,0.08 0.049,0.143l-0.082,0.012c0,-0.046 -0.011,-0.079 -0.033,-0.1c-0.022,-0.02 -0.049,-0.03 -0.081,-0.03c-0.041,0 -0.071,0.015 -0.091,0.045c-0.019,0.029 -0.029,0.066 -0.029,0.109l0,0.21l0.126,0l0,0.072l-0.318,0Z" style="fill:#51ff9a;fill-rule:nonzero;"/></g><g transform="matrix(75,0,0,75,1798.44,2410.87)"><path d="M0.308,0.014c-0.047,0 -0.089,-0.011 -0.126,-0.033c-0.036,-0.021 -0.064,-0.051 -0.085,-0.09c-0.021,-0.038 -0.031,-0.082 -0.031,-0.133l0,-0.024c0,-0.047 0.011,-0.088 0.032,-0.125c0.021,-0.037 0.051,-0.066 0.088,-0.087c0.037,-0.021 0.078,-0.032 0.124,-0.032c0.041,0 0.076,0.007 0.106,0.022c0.029,0.015 0.054,0.033 0.073,0.056c0.018,0.023 0.032,0.047 0.041,0.073c0.009,0.025 0.014,0.049 0.014,0.071l0,0.064l-0.4,-0c0.002,0.049 0.017,0.088 0.046,0.118c0.03,0.031 0.069,0.046 0.12,0.046c0.047,-0 0.083,-0.01 0.106,-0.03c0.023,-0.02 0.039,-0.044 0.048,-0.072l0.074,0.02c-0.014,0.046 -0.04,0.083 -0.077,0.112c-0.038,0.029 -0.089,0.044 -0.153,0.044Zm-0.162,-0.31l0.32,0c-0.001,-0.029 -0.01,-0.053 -0.024,-0.075c-0.015,-0.021 -0.035,-0.037 -0.058,-0.048c-0.023,-0.011 -0.048,-0.017 -0.074,-0.017c-0.044,0 -0.081,0.013 -0.111,0.04c-0.03,0.027 -0.048,0.06 -0.053,0.1Z" style="fill:#51ff9a;fill-rule:nonzero;"/></g><g transform="matrix(75,0,0,75,1844.34,2410.87)"><path d="M0.279,0.014c-0.043,0 -0.083,-0.01 -0.118,-0.029c-0.035,-0.02 -0.062,-0.049 -0.083,-0.087c-0.021,-0.037 -0.031,-0.083 -0.031,-0.138l-0,-0.016c-0,-0.054 0.01,-0.1 0.031,-0.138c0.021,-0.038 0.048,-0.067 0.083,-0.086c0.035,-0.02 0.074,-0.03 0.116,-0.03c0.034,0 0.065,0.007 0.092,0.023c0.028,0.015 0.05,0.038 0.066,0.069l0.012,0l0,-0.078l0.078,0l0,0.394c0,0.02 0.009,0.03 0.027,0.03l0.025,-0l-0,0.072l-0.053,-0c-0.021,-0 -0.039,-0.007 -0.054,-0.02c-0.015,-0.013 -0.023,-0.035 -0.023,-0.064l-0.012,-0c-0.016,0.033 -0.038,0.057 -0.067,0.073c-0.028,0.017 -0.058,0.025 -0.089,0.025Zm0.008,-0.074c0.047,-0 0.085,-0.017 0.115,-0.05c0.03,-0.033 0.045,-0.077 0.045,-0.132l0,-0.012c0,-0.035 -0.007,-0.067 -0.021,-0.094c-0.014,-0.027 -0.033,-0.049 -0.057,-0.065c-0.024,-0.015 -0.051,-0.023 -0.082,-0.023c-0.031,0 -0.058,0.007 -0.082,0.022c-0.024,0.015 -0.043,0.036 -0.057,0.063c-0.014,0.027 -0.021,0.059 -0.021,0.095l0,0.016c0,0.056 0.015,0.1 0.045,0.132c0.03,0.032 0.068,0.048 0.115,0.048Z" style="fill:#51ff9a;fill-rule:nonzero;"/></g><g transform="matrix(75,0,0,75,1890.24,2410.87)"><path d="M0.303,-0c-0.023,-0 -0.041,-0.007 -0.055,-0.022c-0.015,-0.015 -0.022,-0.033 -0.022,-0.056l0,-0.346l-0.156,0l0,-0.072l0.156,0l0,-0.204l0.078,0l0,0.204l0.192,0l0,0.072l-0.192,0l0,0.322c0,0.02 0.009,0.03 0.027,0.03l0.141,0l0,0.072l-0.169,0Z" style="fill:#51ff9a;fill-rule:nonzero;"/></g><g transform="matrix(75,0,0,75,1936.14,2410.87)"><path d="M0.308,0.014c-0.047,0 -0.089,-0.011 -0.126,-0.033c-0.036,-0.021 -0.064,-0.051 -0.085,-0.09c-0.021,-0.038 -0.031,-0.082 -0.031,-0.133l0,-0.024c0,-0.047 0.011,-0.088 0.032,-0.125c0.021,-0.037 0.051,-0.066 0.088,-0.087c0.037,-0.021 0.078,-0.032 0.124,-0.032c0.041,0 0.076,0.007 0.106,0.022c0.029,0.015 0.054,0.033 0.073,0.056c0.018,0.023 0.032,0.047 0.041,0.073c0.009,0.025 0.014,0.049 0.014,0.071l0,0.064l-0.4,-0c0.002,0.049 0.017,0.088 0.046,0.118c0.03,0.031 0.069,0.046 0.12,0.046c0.047,-0 0.083,-0.01 0.106,-0.03c0.023,-0.02 0.039,-0.044 0.048,-0.072l0.074,0.02c-0.014,0.046 -0.04,0.083 -0.077,0.112c-0.038,0.029 -0.089,0.044 -0.153,0.044Zm-0.162,-0.31l0.32,0c-0.001,-0.029 -0.01,-0.053 -0.024,-0.075c-0.015,-0.021 -0.035,-0.037 -0.058,-0.048c-0.023,-0.011 -0.048,-0.017 -0.074,-0.017c-0.044,0 -0.081,0.013 -0.111,0.04c-0.03,0.027 -0.048,0.06 -0.053,0.1Z" style="fill:#51ff9a;fill-rule:nonzero;"/></g><g transform="matrix(75,0,0,75,1982.04,2410.87)"><rect x="0.073" y="0.048" width="0.466" height="0.072" style="fill:#51ff9a;fill-rule:nonzero;"/></g><g transform="matrix(75,0,0,75,2027.94,2410.87)"><path d="M0.314,0.014c-0.051,0 -0.093,-0.009 -0.126,-0.027c-0.033,-0.017 -0.057,-0.04 -0.073,-0.068c-0.016,-0.027 -0.025,-0.056 -0.027,-0.085l0.074,-0.018c0.003,0.038 0.018,0.068 0.045,0.092c0.026,0.022 0.06,0.034 0.103,0.034c0.037,-0 0.066,-0.007 0.088,-0.022c0.023,-0.014 0.034,-0.034 0.034,-0.06c-0,-0.028 -0.011,-0.048 -0.033,-0.06c-0.022,-0.012 -0.058,-0.02 -0.107,-0.023c-0.057,-0.004 -0.101,-0.018 -0.132,-0.041c-0.031,-0.023 -0.046,-0.055 -0.046,-0.098l-0,-0.006c-0,-0.031 0.009,-0.057 0.026,-0.079c0.017,-0.021 0.04,-0.036 0.067,-0.047c0.027,-0.011 0.056,-0.016 0.087,-0.016c0.044,0 0.08,0.007 0.109,0.023c0.03,0.015 0.052,0.034 0.067,0.057c0.015,0.024 0.025,0.049 0.028,0.074l-0.074,0.018c-0.003,-0.032 -0.015,-0.057 -0.038,-0.075c-0.023,-0.018 -0.052,-0.027 -0.088,-0.027c-0.028,0 -0.053,0.006 -0.075,0.018c-0.022,0.012 -0.033,0.03 -0.033,0.054c0,0.024 0.01,0.042 0.03,0.055c0.021,0.013 0.058,0.021 0.112,0.025c0.057,0.005 0.101,0.018 0.132,0.041c0.031,0.023 0.046,0.057 0.046,0.101l0,0.006c0,0.048 -0.018,0.086 -0.054,0.113c-0.037,0.027 -0.084,0.041 -0.142,0.041Z" style="fill:#51ff9a;fill-rule:nonzero;"/></g><g transform="matrix(75,0,0,75,2073.84,2410.87)"><path d="M0.303,-0c-0.023,-0 -0.041,-0.007 -0.055,-0.022c-0.015,-0.015 -0.022,-0.033 -0.022,-0.056l0,-0.346l-0.156,0l0,-0.072l0.156,0l0,-0.204l0.078,0l0,0.204l0.192,0l0,0.072l-0.192,0l0,0.322c0,0.02 0.009,0.03 0.027,0.03l0.141,0l0,0.072l-0.169,0Z" style="fill:#51ff9a;fill-rule:nonzero;"/></g><g transform="matrix(75,0,0,75,2119.74,2410.87)"><path d="M0.306,0.014c-0.044,0 -0.085,-0.01 -0.123,-0.03c-0.037,-0.02 -0.068,-0.049 -0.091,-0.087c-0.023,-0.038 -0.035,-0.084 -0.035,-0.139l0,-0.012c0,-0.054 0.012,-0.1 0.035,-0.139c0.023,-0.038 0.054,-0.067 0.092,-0.087c0.037,-0.02 0.078,-0.03 0.122,-0.03c0.044,0 0.085,0.01 0.123,0.03c0.037,0.02 0.068,0.049 0.091,0.087c0.023,0.039 0.035,0.085 0.035,0.139l0,0.012c0,0.055 -0.012,0.101 -0.035,0.139c-0.023,0.038 -0.054,0.067 -0.092,0.087c-0.037,0.02 -0.078,0.03 -0.122,0.03Zm-0,-0.074c0.032,-0 0.061,-0.007 0.086,-0.022c0.025,-0.015 0.045,-0.036 0.06,-0.063c0.015,-0.027 0.023,-0.06 0.023,-0.097l-0,-0.012c-0,-0.036 -0.008,-0.068 -0.023,-0.095c-0.015,-0.027 -0.035,-0.049 -0.061,-0.064c-0.025,-0.015 -0.054,-0.023 -0.085,-0.023c-0.031,-0 -0.06,0.008 -0.086,0.023c-0.025,0.015 -0.046,0.037 -0.061,0.064c-0.015,0.027 -0.022,0.059 -0.022,0.095l-0,0.012c-0,0.037 0.007,0.07 0.022,0.097c0.015,0.027 0.036,0.048 0.061,0.063c0.026,0.015 0.055,0.022 0.086,0.022Z" style="fill:#51ff9a;fill-rule:nonzero;"/></g><g transform="matrix(75,0,0,75,2165.64,2410.87)"><path d="M0.047,-0l0,-0.072l0.114,0l0,-0.352l-0.102,0l0,-0.072l0.18,0l0,0.066l0.012,0c0.013,-0.027 0.031,-0.048 0.054,-0.061c0.024,-0.012 0.051,-0.019 0.08,-0.019c0.049,0 0.09,0.016 0.121,0.049c0.031,0.033 0.047,0.08 0.049,0.143l-0.082,0.012c0,-0.046 -0.011,-0.079 -0.033,-0.1c-0.022,-0.02 -0.049,-0.03 -0.081,-0.03c-0.041,0 -0.071,0.015 -0.091,0.045c-0.019,0.029 -0.029,0.066 -0.029,0.109l0,0.21l0.126,0l0,0.072l-0.318,0Z" style="fill:#51ff9a;fill-rule:nonzero;"/></g><g transform="matrix(75,0,0,75,2211.54,2410.87)"><path d="M0.165,0.2l0,-0.072l0.255,0c0.018,0 0.027,-0.01 0.027,-0.03l-0,-0.188l-0.012,0c-0.016,0.032 -0.037,0.057 -0.063,0.076c-0.026,0.019 -0.059,0.028 -0.099,0.028c-0.055,-0 -0.099,-0.018 -0.134,-0.054c-0.035,-0.036 -0.052,-0.089 -0.052,-0.16l0,-0.296l0.078,0l0,0.286c0,0.052 0.011,0.09 0.032,0.114c0.021,0.024 0.054,0.036 0.098,0.036c0.047,-0 0.084,-0.016 0.111,-0.049c0.027,-0.032 0.041,-0.075 0.041,-0.129l0,-0.258l0.078,0l0,0.618c0,0.023 -0.007,0.041 -0.021,0.056c-0.015,0.015 -0.033,0.022 -0.056,0.022l-0.283,0Z" style="fill:#51ff9a;fill-rule:nonzero;"/></g><g transform="matrix(75,0,0,75,2257.44,2410.87)"><path d="M0.51,0.156c-0.047,0 -0.091,-0.009 -0.134,-0.026c-0.042,-0.017 -0.08,-0.042 -0.112,-0.076c-0.034,-0.033 -0.06,-0.073 -0.079,-0.12c-0.019,-0.047 -0.029,-0.099 -0.029,-0.158l0,-0.252c0,-0.059 0.01,-0.112 0.029,-0.159c0.019,-0.047 0.046,-0.086 0.079,-0.12c0.032,-0.033 0.07,-0.058 0.112,-0.075c0.043,-0.017 0.087,-0.026 0.134,-0.026l0.036,0l0,0.074l-0.036,0c-0.048,0 -0.093,0.013 -0.135,0.037c-0.042,0.025 -0.076,0.061 -0.102,0.107c-0.026,0.047 -0.039,0.102 -0.039,0.166l0,0.244c0,0.064 0.013,0.119 0.039,0.165c0.026,0.047 0.06,0.082 0.102,0.107c0.042,0.025 0.087,0.038 0.135,0.038l0.036,-0l0,0.074l-0.036,-0Z" style="fill:#fff;fill-rule:nonzero;"/></g><g transform="matrix(75,0,0,75,2303.34,2410.87)"><path d="M0.259,-0c-0.067,-0 -0.118,-0.017 -0.154,-0.052c-0.035,-0.035 -0.053,-0.078 -0.053,-0.131l-0,-0.012c0,-0.037 0.011,-0.07 0.034,-0.096c0.023,-0.027 0.051,-0.045 0.084,-0.054l-0,-0.012c-0.033,-0.009 -0.061,-0.027 -0.084,-0.053c-0.023,-0.026 -0.034,-0.058 -0.034,-0.096l-0,-0.012c-0,-0.052 0.018,-0.095 0.053,-0.13c0.036,-0.035 0.087,-0.052 0.154,-0.052l0.128,0l0,0.078l-0.122,0c-0.039,0 -0.071,0.01 -0.096,0.03c-0.025,0.019 -0.037,0.046 -0.037,0.08l0,0.006c0,0.036 0.012,0.064 0.035,0.085c0.023,0.021 0.055,0.031 0.095,0.031l0.137,0l0,-0.106l0.084,0l-0,0.106l0.097,0l-0,0.078l-0.097,0l-0,0.312l-0.224,0Zm0.006,-0.078l0.134,0l-0,-0.234l-0.137,0c-0.04,0 -0.072,0.011 -0.095,0.032c-0.023,0.021 -0.035,0.05 -0.035,0.085l-0,0.006c-0,0.035 0.012,0.062 0.037,0.082c0.025,0.019 0.057,0.029 0.096,0.029Z" style="fill:#55b6d6;fill-rule:nonzero;"/></g><g transform="matrix(75,0,0,75,2349.24,2410.87)"><path d="M0.329,0.014c-0.032,0 -0.064,-0.008 -0.096,-0.023c-0.032,-0.015 -0.057,-0.037 -0.074,-0.067l-0.012,0l-0,0.076l-0.078,-0l-0,-0.7l0.078,0l-0,0.282l0.012,0c0.017,-0.03 0.041,-0.053 0.072,-0.068c0.031,-0.016 0.064,-0.024 0.1,-0.024c0.041,0 0.078,0.01 0.113,0.03c0.035,0.019 0.062,0.048 0.083,0.085c0.022,0.038 0.032,0.084 0.032,0.137l0,0.02c0,0.054 -0.01,0.1 -0.031,0.137c-0.021,0.037 -0.049,0.066 -0.084,0.085c-0.035,0.02 -0.073,0.03 -0.115,0.03Zm-0.016,-0.074c0.047,-0 0.087,-0.016 0.118,-0.048c0.032,-0.032 0.048,-0.075 0.048,-0.13l0,-0.02c0,-0.035 -0.007,-0.066 -0.022,-0.093c-0.015,-0.027 -0.034,-0.048 -0.059,-0.063c-0.025,-0.015 -0.054,-0.022 -0.085,-0.022c-0.031,0 -0.058,0.008 -0.083,0.023c-0.025,0.016 -0.045,0.038 -0.06,0.065c-0.015,0.027 -0.023,0.059 -0.023,0.094l0,0.012c0,0.037 0.007,0.069 0.022,0.096c0.015,0.027 0.035,0.049 0.06,0.063c0.025,0.015 0.053,0.023 0.084,0.023Z" style="fill:#fff;fill-rule:nonzero;"/></g><g transform="matrix(75,0,0,75,2395.14,2410.87)"><path d="M0.087,-0l0,-0.072l0.18,0l0,-0.556l-0.174,0l0,-0.072l0.252,0l0,0.628l0.18,0l0,0.072l-0.438,0Z" style="fill:#fff;fill-rule:nonzero;"/></g><g transform="matrix(75,0,0,75,2441.04,2410.87)"><path d="M0.306,0.014c-0.044,0 -0.085,-0.01 -0.123,-0.03c-0.037,-0.02 -0.068,-0.049 -0.091,-0.087c-0.023,-0.038 -0.035,-0.084 -0.035,-0.139l0,-0.012c0,-0.054 0.012,-0.1 0.035,-0.139c0.023,-0.038 0.054,-0.067 0.092,-0.087c0.037,-0.02 0.078,-0.03 0.122,-0.03c0.044,0 0.085,0.01 0.123,0.03c0.037,0.02 0.068,0.049 0.091,0.087c0.023,0.039 0.035,0.085 0.035,0.139l0,0.012c0,0.055 -0.012,0.101 -0.035,0.139c-0.023,0.038 -0.054,0.067 -0.092,0.087c-0.037,0.02 -0.078,0.03 -0.122,0.03Zm-0,-0.074c0.032,-0 0.061,-0.007 0.086,-0.022c0.025,-0.015 0.045,-0.036 0.06,-0.063c0.015,-0.027 0.023,-0.06 0.023,-0.097l-0,-0.012c-0,-0.036 -0.008,-0.068 -0.023,-0.095c-0.015,-0.027 -0.035,-0.049 -0.061,-0.064c-0.025,-0.015 -0.054,-0.023 -0.085,-0.023c-0.031,-0 -0.06,0.008 -0.086,0.023c-0.025,0.015 -0.046,0.037 -0.061,0.064c-0.015,0.027 -0.022,0.059 -0.022,0.095l-0,0.012c-0,0.037 0.007,0.07 0.022,0.097c0.015,0.027 0.036,0.048 0.061,0.063c0.026,0.015 0.055,0.022 0.086,0.022Z" style="fill:#fff;fill-rule:nonzero;"/></g><g transform="matrix(75,0,0,75,2486.94,2410.87)"><path d="M0.315,0.014c-0.046,0 -0.088,-0.01 -0.127,-0.029c-0.039,-0.02 -0.07,-0.049 -0.094,-0.087c-0.023,-0.038 -0.035,-0.084 -0.035,-0.138l0,-0.012c0,-0.053 0.012,-0.099 0.036,-0.138c0.023,-0.039 0.054,-0.068 0.093,-0.089c0.039,-0.021 0.081,-0.031 0.127,-0.031c0.042,0 0.08,0.008 0.112,0.025c0.033,0.016 0.061,0.038 0.082,0.067c0.021,0.029 0.034,0.061 0.04,0.098l-0.078,0.018c-0.003,-0.023 -0.01,-0.045 -0.023,-0.066c-0.013,-0.02 -0.03,-0.036 -0.052,-0.049c-0.023,-0.013 -0.05,-0.019 -0.083,-0.019c-0.032,-0 -0.061,0.008 -0.087,0.023c-0.027,0.016 -0.048,0.038 -0.063,0.065c-0.016,0.028 -0.024,0.06 -0.024,0.096l0,0.012c0,0.037 0.008,0.069 0.024,0.096c0.015,0.027 0.036,0.048 0.063,0.062c0.027,0.015 0.056,0.022 0.089,0.022c0.033,-0 0.06,-0.007 0.083,-0.02c0.022,-0.013 0.039,-0.029 0.052,-0.05c0.012,-0.02 0.02,-0.041 0.023,-0.064l0.078,0.018c-0.007,0.037 -0.02,0.069 -0.041,0.098c-0.021,0.029 -0.047,0.051 -0.08,0.067c-0.033,0.017 -0.072,0.025 -0.115,0.025Z" style="fill:#fff;fill-rule:nonzero;"/></g><g transform="matrix(75,0,0,75,2532.84,2410.87)"><path d="M0.137,-0l0,-0.7l0.078,0l-0,0.41l0.017,0l0.189,-0.206l0.096,0l0,0.006l-0.206,0.227l0,0.018l0.23,0.239l0,0.006l-0.096,-0l-0.211,-0.218l-0.019,-0l-0,0.218l-0.078,-0Z" style="fill:#fff;fill-rule:nonzero;"/></g><g transform="matrix(75,0,0,75,2578.74,2410.87)"><path d="M0.066,0.156l0,-0.074l0.036,0c0.048,0 0.093,-0.012 0.135,-0.038c0.042,-0.025 0.076,-0.06 0.102,-0.107c0.026,-0.046 0.039,-0.101 0.039,-0.165l0,-0.244c-0,-0.064 -0.013,-0.119 -0.039,-0.166c-0.026,-0.046 -0.06,-0.082 -0.102,-0.107c-0.042,-0.024 -0.087,-0.037 -0.135,-0.037l-0.036,0l0,-0.074l0.036,0c0.047,0 0.091,0.009 0.134,0.026c0.042,0.017 0.079,0.042 0.113,0.075c0.032,0.034 0.059,0.073 0.078,0.12c0.019,0.047 0.029,0.1 0.029,0.159l-0,0.252c-0,0.059 -0.01,0.111 -0.029,0.158c-0.019,0.047 -0.046,0.087 -0.079,0.12c-0.033,0.033 -0.07,0.059 -0.113,0.076c-0.042,0.017 -0.086,0.026 -0.133,0.026l-0.036,0Z" style="fill:#fff;fill-rule:nonzero;"/></g><g transform="matrix(75,0,0,75,1673.04,2502.53)"><path d="M0.32,0.014c-0.06,0 -0.11,-0.011 -0.151,-0.034c-0.041,-0.022 -0.072,-0.052 -0.093,-0.091c-0.021,-0.039 -0.031,-0.082 -0.031,-0.131l-0,-0.03l0.084,0l0,0.024c0,0.061 0.017,0.107 0.051,0.138c0.034,0.031 0.081,0.046 0.14,0.046c0.052,0 0.091,-0.012 0.117,-0.035c0.027,-0.023 0.04,-0.054 0.04,-0.091l0,-0.006c0,-0.037 -0.013,-0.065 -0.04,-0.084c-0.028,-0.019 -0.071,-0.033 -0.132,-0.042c-0.07,-0.01 -0.126,-0.03 -0.167,-0.059c-0.042,-0.03 -0.063,-0.075 -0.063,-0.135l0,-0.012c0,-0.037 0.01,-0.069 0.03,-0.097c0.019,-0.027 0.046,-0.049 0.081,-0.065c0.035,-0.016 0.075,-0.024 0.12,-0.024c0.053,0 0.098,0.01 0.135,0.029c0.037,0.019 0.065,0.045 0.084,0.076c0.02,0.032 0.03,0.067 0.03,0.105l0,0.042l-0.084,0l0,-0.036c0,-0.031 -0.008,-0.056 -0.023,-0.077c-0.015,-0.02 -0.036,-0.035 -0.061,-0.046c-0.025,-0.01 -0.053,-0.015 -0.082,-0.015c-0.025,0 -0.049,0.004 -0.071,0.013c-0.023,0.009 -0.041,0.021 -0.054,0.037c-0.014,0.017 -0.021,0.037 -0.021,0.061l0,0.006c0,0.039 0.016,0.067 0.047,0.084c0.031,0.018 0.078,0.032 0.141,0.041c0.073,0.011 0.127,0.032 0.162,0.064c0.035,0.032 0.052,0.075 0.052,0.128l0,0.012c0,0.061 -0.02,0.11 -0.062,0.147c-0.041,0.038 -0.1,0.057 -0.179,0.057Z" style="fill:#fff;fill-rule:nonzero;"/></g><g transform="matrix(75,0,0,75,1718.94,2502.53)"><path d="M0.303,-0c-0.023,-0 -0.041,-0.007 -0.055,-0.022c-0.015,-0.015 -0.022,-0.033 -0.022,-0.056l0,-0.346l-0.156,0l0,-0.072l0.156,0l0,-0.204l0.078,0l0,0.204l0.192,0l0,0.072l-0.192,0l0,0.322c0,0.02 0.009,0.03 0.027,0.03l0.141,0l0,0.072l-0.169,0Z" style="fill:#fff;fill-rule:nonzero;"/></g><g transform="matrix(75,0,0,75,1764.84,2502.53)"><path d="M0.306,0.014c-0.044,0 -0.085,-0.01 -0.123,-0.03c-0.037,-0.02 -0.068,-0.049 -0.091,-0.087c-0.023,-0.038 -0.035,-0.084 -0.035,-0.139l0,-0.012c0,-0.054 0.012,-0.1 0.035,-0.139c0.023,-0.038 0.054,-0.067 0.092,-0.087c0.037,-0.02 0.078,-0.03 0.122,-0.03c0.044,0 0.085,0.01 0.123,0.03c0.037,0.02 0.068,0.049 0.091,0.087c0.023,0.039 0.035,0.085 0.035,0.139l0,0.012c0,0.055 -0.012,0.101 -0.035,0.139c-0.023,0.038 -0.054,0.067 -0.092,0.087c-0.037,0.02 -0.078,0.03 -0.122,0.03Zm-0,-0.074c0.032,-0 0.061,-0.007 0.086,-0.022c0.025,-0.015 0.045,-0.036 0.06,-0.063c0.015,-0.027 0.023,-0.06 0.023,-0.097l-0,-0.012c-0,-0.036 -0.008,-0.068 -0.023,-0.095c-0.015,-0.027 -0.035,-0.049 -0.061,-0.064c-0.025,-0.015 -0.054,-0.023 -0.085,-0.023c-0.031,-0 -0.06,0.008 -0.086,0.023c-0.025,0.015 -0.046,0.037 -0.061,0.064c-0.015,0.027 -0.022,0.059 -0.022,0.095l-0,0.012c-0,0.037 0.007,0.07 0.022,0.097c0.015,0.027 0.036,0.048 0.061,0.063c0.026,0.015 0.055,0.022 0.086,0.022Z" style="fill:#fff;fill-rule:nonzero;"/></g><g transform="matrix(75,0,0,75,1810.74,2502.53)"><path d="M0.047,-0l0,-0.072l0.114,0l0,-0.352l-0.102,0l0,-0.072l0.18,0l0,0.066l0.012,0c0.013,-0.027 0.031,-0.048 0.054,-0.061c0.024,-0.012 0.051,-0.019 0.08,-0.019c0.049,0 0.09,0.016 0.121,0.049c0.031,0.033 0.047,0.08 0.049,0.143l-0.082,0.012c0,-0.046 -0.011,-0.079 -0.033,-0.1c-0.022,-0.02 -0.049,-0.03 -0.081,-0.03c-0.041,0 -0.071,0.015 -0.091,0.045c-0.019,0.029 -0.029,0.066 -0.029,0.109l0,0.21l0.126,0l0,0.072l-0.318,0Z" style="fill:#fff;fill-rule:nonzero;"/></g><g transform="matrix(75,0,0,75,1856.64,2502.53)"><path d="M0.165,0.2l0,-0.072l0.255,0c0.018,0 0.027,-0.01 0.027,-0.03l-0,-0.188l-0.012,0c-0.016,0.032 -0.037,0.057 -0.063,0.076c-0.026,0.019 -0.059,0.028 -0.099,0.028c-0.055,-0 -0.099,-0.018 -0.134,-0.054c-0.035,-0.036 -0.052,-0.089 -0.052,-0.16l0,-0.296l0.078,0l0,0.286c0,0.052 0.011,0.09 0.032,0.114c0.021,0.024 0.054,0.036 0.098,0.036c0.047,-0 0.084,-0.016 0.111,-0.049c0.027,-0.032 0.041,-0.075 0.041,-0.129l0,-0.258l0.078,0l0,0.618c0,0.023 -0.007,0.041 -0.021,0.056c-0.015,0.015 -0.033,0.022 -0.056,0.022l-0.283,0Z" style="fill:#fff;fill-rule:nonzero;"/></g><g transform="matrix(75,0,0,75,1902.54,2502.53)"><path d="M0.306,0.014c-0.019,0 -0.035,-0.007 -0.049,-0.021c-0.014,-0.014 -0.021,-0.03 -0.021,-0.049c0,-0.019 0.007,-0.036 0.021,-0.049c0.014,-0.014 0.03,-0.021 0.049,-0.021c0.019,0 0.036,0.007 0.049,0.021c0.014,0.013 0.021,0.03 0.021,0.049c0,0.019 -0.007,0.035 -0.021,0.049c-0.013,0.014 -0.03,0.021 -0.049,0.021Z" style="fill:#fff;fill-rule:nonzero;"/></g><g transform="matrix(75,0,0,75,1948.44,2502.53)"><path d="M0.087,-0l0,-0.496l0.078,0l0,0.084l0.012,-0c0.031,-0.065 0.084,-0.098 0.16,-0.098c0.057,0 0.103,0.018 0.137,0.053c0.034,0.036 0.051,0.09 0.051,0.161l0,0.296l-0.078,0l0,-0.28c0,-0.052 -0.012,-0.091 -0.035,-0.117c-0.023,-0.026 -0.055,-0.039 -0.095,-0.039c-0.047,0 -0.084,0.016 -0.111,0.049c-0.027,0.032 -0.041,0.075 -0.041,0.129l-0,0.258l-0.078,0Z" style="fill:#55b6d6;fill-rule:nonzero;"/></g><g transform="matrix(75,0,0,75,1994.34,2502.53)"><path d="M0.308,0.014c-0.047,0 -0.089,-0.011 -0.126,-0.033c-0.036,-0.021 -0.064,-0.051 -0.085,-0.09c-0.021,-0.038 -0.031,-0.082 -0.031,-0.133l0,-0.024c0,-0.047 0.011,-0.088 0.032,-0.125c0.021,-0.037 0.051,-0.066 0.088,-0.087c0.037,-0.021 0.078,-0.032 0.124,-0.032c0.041,0 0.076,0.007 0.106,0.022c0.029,0.015 0.054,0.033 0.073,0.056c0.018,0.023 0.032,0.047 0.041,0.073c0.009,0.025 0.014,0.049 0.014,0.071l0,0.064l-0.4,-0c0.002,0.049 0.017,0.088 0.046,0.118c0.03,0.031 0.069,0.046 0.12,0.046c0.047,-0 0.083,-0.01 0.106,-0.03c0.023,-0.02 0.039,-0.044 0.048,-0.072l0.074,0.02c-0.014,0.046 -0.04,0.083 -0.077,0.112c-0.038,0.029 -0.089,0.044 -0.153,0.044Zm-0.162,-0.31l0.32,0c-0.001,-0.029 -0.01,-0.053 -0.024,-0.075c-0.015,-0.021 -0.035,-0.037 -0.058,-0.048c-0.023,-0.011 -0.048,-0.017 -0.074,-0.017c-0.044,0 -0.081,0.013 -0.111,0.04c-0.03,0.027 -0.048,0.06 -0.053,0.1Z" style="fill:#55b6d6;fill-rule:nonzero;"/></g><g transform="matrix(75,0,0,75,2040.24,2502.53)"><path d="M0.096,-0l-0.078,-0.496l0.08,0l0.066,0.46l0.012,-0l0.058,-0.46l0.144,0l0.058,0.46l0.012,-0l0.066,-0.46l0.08,0l-0.078,0.496l-0.144,-0l-0.06,-0.46l-0.012,0l-0.06,0.46l-0.144,-0Z" style="fill:#55b6d6;fill-rule:nonzero;"/></g><g transform="matrix(75,0,0,75,2086.14,2502.53)"><path d="M0.51,0.156c-0.047,0 -0.091,-0.009 -0.134,-0.026c-0.042,-0.017 -0.08,-0.042 -0.112,-0.076c-0.034,-0.033 -0.06,-0.073 -0.079,-0.12c-0.019,-0.047 -0.029,-0.099 -0.029,-0.158l0,-0.252c0,-0.059 0.01,-0.112 0.029,-0.159c0.019,-0.047 0.046,-0.086 0.079,-0.12c0.032,-0.033 0.07,-0.058 0.112,-0.075c0.043,-0.017 0.087,-0.026 0.134,-0.026l0.036,0l0,0.074l-0.036,0c-0.048,0 -0.093,0.013 -0.135,0.037c-0.042,0.025 -0.076,0.061 -0.102,0.107c-0.026,0.047 -0.039,0.102 -0.039,0.166l0,0.244c0,0.064 0.013,0.119 0.039,0.165c0.026,0.047 0.06,0.082 0.102,0.107c0.042,0.025 0.087,0.038 0.135,0.038l0.036,-0l0,0.074l-0.036,-0Z" style="fill:#fff;fill-rule:nonzero;"/></g><g transform="matrix(75,0,0,75,2132.04,2502.53)"><path d="M0.259,-0c-0.067,-0 -0.118,-0.017 -0.154,-0.052c-0.035,-0.035 -0.053,-0.078 -0.053,-0.131l-0,-0.012c0,-0.037 0.011,-0.07 0.034,-0.096c0.023,-0.027 0.051,-0.045 0.084,-0.054l-0,-0.012c-0.033,-0.009 -0.061,-0.027 -0.084,-0.053c-0.023,-0.026 -0.034,-0.058 -0.034,-0.096l-0,-0.012c-0,-0.052 0.018,-0.095 0.053,-0.13c0.036,-0.035 0.087,-0.052 0.154,-0.052l0.128,0l0,0.078l-0.122,0c-0.039,0 -0.071,0.01 -0.096,0.03c-0.025,0.019 -0.037,0.046 -0.037,0.08l0,0.006c0,0.036 0.012,0.064 0.035,0.085c0.023,0.021 0.055,0.031 0.095,0.031l0.137,0l0,-0.106l0.084,0l-0,0.106l0.097,0l-0,0.078l-0.097,0l-0,0.312l-0.224,0Zm0.006,-0.078l0.134,0l-0,-0.234l-0.137,0c-0.04,0 -0.072,0.011 -0.095,0.032c-0.023,0.021 -0.035,0.05 -0.035,0.085l-0,0.006c-0,0.035 0.012,0.062 0.037,0.082c0.025,0.019 0.057,0.029 0.096,0.029Z" style="fill:#a2979a;fill-rule:nonzero;"/></g><g transform="matrix(75,0,0,75,2177.94,2502.53)"><path d="M0.329,0.014c-0.032,0 -0.064,-0.008 -0.096,-0.023c-0.032,-0.015 -0.057,-0.037 -0.074,-0.067l-0.012,0l-0,0.076l-0.078,-0l-0,-0.7l0.078,0l-0,0.282l0.012,0c0.017,-0.03 0.041,-0.053 0.072,-0.068c0.031,-0.016 0.064,-0.024 0.1,-0.024c0.041,0 0.078,0.01 0.113,0.03c0.035,0.019 0.062,0.048 0.083,0.085c0.022,0.038 0.032,0.084 0.032,0.137l0,0.02c0,0.054 -0.01,0.1 -0.031,0.137c-0.021,0.037 -0.049,0.066 -0.084,0.085c-0.035,0.02 -0.073,0.03 -0.115,0.03Zm-0.016,-0.074c0.047,-0 0.087,-0.016 0.118,-0.048c0.032,-0.032 0.048,-0.075 0.048,-0.13l0,-0.02c0,-0.035 -0.007,-0.066 -0.022,-0.093c-0.015,-0.027 -0.034,-0.048 -0.059,-0.063c-0.025,-0.015 -0.054,-0.022 -0.085,-0.022c-0.031,0 -0.058,0.008 -0.083,0.023c-0.025,0.016 -0.045,0.038 -0.06,0.065c-0.015,0.027 -0.023,0.059 -0.023,0.094l0,0.012c0,0.037 0.007,0.069 0.022,0.096c0.015,0.027 0.035,0.049 0.06,0.063c0.025,0.015 0.053,0.023 0.084,0.023Z" style="fill:#fff;fill-rule:nonzero;"/></g><g transform="matrix(75,0,0,75,2223.84,2502.53)"><path d="M0.087,-0l0,-0.072l0.18,0l0,-0.556l-0.174,0l0,-0.072l0.252,0l0,0.628l0.18,0l0,0.072l-0.438,0Z" style="fill:#fff;fill-rule:nonzero;"/></g><g transform="matrix(75,0,0,75,2269.74,2502.53)"><path d="M0.306,0.014c-0.044,0 -0.085,-0.01 -0.123,-0.03c-0.037,-0.02 -0.068,-0.049 -0.091,-0.087c-0.023,-0.038 -0.035,-0.084 -0.035,-0.139l0,-0.012c0,-0.054 0.012,-0.1 0.035,-0.139c0.023,-0.038 0.054,-0.067 0.092,-0.087c0.037,-0.02 0.078,-0.03 0.122,-0.03c0.044,0 0.085,0.01 0.123,0.03c0.037,0.02 0.068,0.049 0.091,0.087c0.023,0.039 0.035,0.085 0.035,0.139l0,0.012c0,0.055 -0.012,0.101 -0.035,0.139c-0.023,0.038 -0.054,0.067 -0.092,0.087c-0.037,0.02 -0.078,0.03 -0.122,0.03Zm-0,-0.074c0.032,-0 0.061,-0.007 0.086,-0.022c0.025,-0.015 0.045,-0.036 0.06,-0.063c0.015,-0.027 0.023,-0.06 0.023,-0.097l-0,-0.012c-0,-0.036 -0.008,-0.068 -0.023,-0.095c-0.015,-0.027 -0.035,-0.049 -0.061,-0.064c-0.025,-0.015 -0.054,-0.023 -0.085,-0.023c-0.031,-0 -0.06,0.008 -0.086,0.023c-0.025,0.015 -0.046,0.037 -0.061,0.064c-0.015,0.027 -0.022,0.059 -0.022,0.095l-0,0.012c-0,0.037 0.007,0.07 0.022,0.097c0.015,0.027 0.036,0.048 0.061,0.063c0.026,0.015 0.055,0.022 0.086,0.022Z" style="fill:#fff;fill-rule:nonzero;"/></g><g transform="matrix(75,0,0,75,2315.64,2502.53)"><path d="M0.315,0.014c-0.046,0 -0.088,-0.01 -0.127,-0.029c-0.039,-0.02 -0.07,-0.049 -0.094,-0.087c-0.023,-0.038 -0.035,-0.084 -0.035,-0.138l0,-0.012c0,-0.053 0.012,-0.099 0.036,-0.138c0.023,-0.039 0.054,-0.068 0.093,-0.089c0.039,-0.021 0.081,-0.031 0.127,-0.031c0.042,0 0.08,0.008 0.112,0.025c0.033,0.016 0.061,0.038 0.082,0.067c0.021,0.029 0.034,0.061 0.04,0.098l-0.078,0.018c-0.003,-0.023 -0.01,-0.045 -0.023,-0.066c-0.013,-0.02 -0.03,-0.036 -0.052,-0.049c-0.023,-0.013 -0.05,-0.019 -0.083,-0.019c-0.032,-0 -0.061,0.008 -0.087,0.023c-0.027,0.016 -0.048,0.038 -0.063,0.065c-0.016,0.028 -0.024,0.06 -0.024,0.096l0,0.012c0,0.037 0.008,0.069 0.024,0.096c0.015,0.027 0.036,0.048 0.063,0.062c0.027,0.015 0.056,0.022 0.089,0.022c0.033,-0 0.06,-0.007 0.083,-0.02c0.022,-0.013 0.039,-0.029 0.052,-0.05c0.012,-0.02 0.02,-0.041 0.023,-0.064l0.078,0.018c-0.007,0.037 -0.02,0.069 -0.041,0.098c-0.021,0.029 -0.047,0.051 -0.08,0.067c-0.033,0.017 -0.072,0.025 -0.115,0.025Z" style="fill:#fff;fill-rule:nonzero;"/></g><g transform="matrix(75,0,0,75,2361.54,2502.53)"><path d="M0.137,-0l0,-0.7l0.078,0l-0,0.41l0.017,0l0.189,-0.206l0.096,0l0,0.006l-0.206,0.227l0,0.018l0.23,0.239l0,0.006l-0.096,-0l-0.211,-0.218l-0.019,-0l-0,0.218l-0.078,-0Z" style="fill:#fff;fill-rule:nonzero;"/></g><g transform="matrix(75,0,0,75,2407.44,2502.53)"><path d="M0.066,0.156l0,-0.074l0.036,0c0.048,0 0.093,-0.012 0.135,-0.038c0.042,-0.025 0.076,-0.06 0.102,-0.107c0.026,-0.046 0.039,-0.101 0.039,-0.165l0,-0.244c-0,-0.064 -0.013,-0.119 -0.039,-0.166c-0.026,-0.046 -0.06,-0.082 -0.102,-0.107c-0.042,-0.024 -0.087,-0.037 -0.135,-0.037l-0.036,0l0,-0.074l0.036,0c0.047,0 0.091,0.009 0.134,0.026c0.042,0.017 0.079,0.042 0.113,0.075c0.032,0.034 0.059,0.073 0.078,0.12c0.019,0.047 0.029,0.1 0.029,0.159l-0,0.252c-0,0.059 -0.01,0.111 -0.029,0.158c-0.019,0.047 -0.046,0.087 -0.079,0.12c-0.033,0.033 -0.07,0.059 -0.113,0.076c-0.042,0.017 -0.086,0.026 -0.133,0.026l-0.036,0Z" style="fill:#fff;fill-rule:nonzero;"/></g><g transform="matrix(75,0,0,75,1523.04,2594.2)"><path d="M0.308,0.014c-0.047,0 -0.089,-0.011 -0.126,-0.033c-0.036,-0.021 -0.064,-0.051 -0.085,-0.09c-0.021,-0.038 -0.031,-0.082 -0.031,-0.133l0,-0.024c0,-0.047 0.011,-0.088 0.032,-0.125c0.021,-0.037 0.051,-0.066 0.088,-0.087c0.037,-0.021 0.078,-0.032 0.124,-0.032c0.041,0 0.076,0.007 0.106,0.022c0.029,0.015 0.054,0.033 0.073,0.056c0.018,0.023 0.032,0.047 0.041,0.073c0.009,0.025 0.014,0.049 0.014,0.071l0,0.064l-0.4,-0c0.002,0.049 0.017,0.088 0.046,0.118c0.03,0.031 0.069,0.046 0.12,0.046c0.047,-0 0.083,-0.01 0.106,-0.03c0.023,-0.02 0.039,-0.044 0.048,-0.072l0.074,0.02c-0.014,0.046 -0.04,0.083 -0.077,0.112c-0.038,0.029 -0.089,0.044 -0.153,0.044Zm-0.162,-0.31l0.32,0c-0.001,-0.029 -0.01,-0.053 -0.024,-0.075c-0.015,-0.021 -0.035,-0.037 -0.058,-0.048c-0.023,-0.011 -0.048,-0.017 -0.074,-0.017c-0.044,0 -0.081,0.013 -0.111,0.04c-0.03,0.027 -0.048,0.06 -0.053,0.1Z" style="fill:#55b6d6;fill-rule:nonzero;"/></g><g transform="matrix(75,0,0,75,1568.94,2594.2)"><path d="M0.087,-0l0,-0.496l0.078,0l0,0.084l0.012,-0c0.031,-0.065 0.084,-0.098 0.16,-0.098c0.057,0 0.103,0.018 0.137,0.053c0.034,0.036 0.051,0.09 0.051,0.161l0,0.296l-0.078,0l0,-0.28c0,-0.052 -0.012,-0.091 -0.035,-0.117c-0.023,-0.026 -0.055,-0.039 -0.095,-0.039c-0.047,0 -0.084,0.016 -0.111,0.049c-0.027,0.032 -0.041,0.075 -0.041,0.129l-0,0.258l-0.078,0Z" style="fill:#55b6d6;fill-rule:nonzero;"/></g><g transform="matrix(75,0,0,75,1614.84,2594.2)"><path d="M0.297,0.014c-0.044,0 -0.084,-0.01 -0.12,-0.029c-0.036,-0.02 -0.065,-0.049 -0.086,-0.087c-0.021,-0.038 -0.032,-0.084 -0.032,-0.138l0,-0.016c0,-0.054 0.011,-0.1 0.033,-0.138c0.021,-0.037 0.05,-0.066 0.086,-0.086c0.035,-0.02 0.074,-0.03 0.117,-0.03c0.034,0 0.066,0.007 0.096,0.023c0.029,0.015 0.052,0.038 0.068,0.069l0.012,0l0,-0.282l0.078,-0l0,0.7l-0.078,-0l0,-0.076l-0.012,-0c-0.016,0.031 -0.04,0.053 -0.071,0.068c-0.031,0.015 -0.061,0.022 -0.091,0.022Zm0.008,-0.074c0.031,-0 0.059,-0.008 0.084,-0.023c0.025,-0.015 0.045,-0.036 0.06,-0.063c0.015,-0.027 0.022,-0.059 0.022,-0.096l-0,-0.012c-0,-0.035 -0.008,-0.067 -0.023,-0.094c-0.015,-0.027 -0.035,-0.049 -0.06,-0.065c-0.025,-0.015 -0.052,-0.023 -0.083,-0.023c-0.031,-0 -0.06,0.007 -0.085,0.022c-0.025,0.015 -0.044,0.036 -0.059,0.063c-0.015,0.027 -0.022,0.059 -0.022,0.095l-0,0.016c-0,0.037 0.007,0.068 0.021,0.095c0.015,0.027 0.035,0.048 0.06,0.063c0.025,0.015 0.054,0.022 0.085,0.022Z" style="fill:#55b6d6;fill-rule:nonzero;"/></g></g><path d="M124.801,22.572l20.309,37.945l-119.67,2.402l0,-43.294l99.361,2.947Z" style="fill:#d66aff;fill-opacity:0.33;stroke:#bc56d5;stroke-width:0.93px;"/><path d="M134.742,41.272l202.755,21.647l6.995,25.031" style="fill:none;stroke:#bc56d5;stroke-width:1.07px;"/><path d="M134.742,41.272l202.755,21.647l6.995,25.031" style="fill:none;stroke:#bc56d5;stroke-width:1.07px;"/><path d="M344.492,102.623l-6.995,-14.673l13.99,0l-6.995,14.673Z" style="fill:#9c007d;fill-opacity:0.53;stroke:#bc56d5;stroke-width:1.07px;"/></svg>